# xmcd
#
# Track frame offsets:
#	150
#	15252
#	28815
#	45117
#	58617
#	70506
#	85144
#	100117
#	118136
#	127367
#	142705
#	157034
#	176191
#	191185
#
# Disc length: 2706 seconds
#
# Revision: 0
# Processed by: cddbd v1.4PL0 Copyright (c) Steve Scherf et al.
# Submitted via: dBpowerAMP V4.0
#
DISCID=b90a900e
DTITLE=Denans - Feesten en beesten met Denans
DYEAR=2003
DGENRE=Comedy
TTITLE0=Sombrero (Grote Hoed)
TTITLE1=Riet hou me vast
TTITLE2=Huilen is voor jou te laat
TTITLE3=Schudden met die gat
TTITLE4=Heya heya ho
TTITLE5=Help, lieveling help
TTITLE6=Daar heb je vrienden voor
TTITLE7=Ze bakt een ei voor mij
TTITLE8=Ra-ta-ta
TTITLE9=Een huis met een tuintje
TTITLE10=We zingen holadiejee
TTITLE11=Bosje rode rozen
TTITLE12=Op ons wasgoed schijten duiven
TTITLE13=Feesten en beesten
EXTD=
EXTT0=
EXTT1=
EXTT2=
EXTT3=
EXTT4=
EXTT5=
EXTT6=
EXTT7=
EXTT8=
EXTT9=
EXTT10=
EXTT11=
EXTT12=
EXTT13=
PLAYORDER=
